# xmcd
#
# Track frame offsets:
#	150
#	8510
#	24276
#	41543
#	57311
#	77481
#	99005
#	121757
#	138889
#	158444
#	182826
#	201562
#	210635
#	229760
#	249701
#
# Disc length: 3511 seconds
#
# Revision: 0
# Processed by: cddbd v1.5.1PL0 Copyright (c) Steve Scherf et al.
# Submitted via: dBpowerAMP V4.0
#
DISCID=b10db50f
DTITLE=Alicia Keys - Song in A minor
DYEAR=1900
DGENRE=R&B
TTITLE0=Piano and 1
TTITLE1=Girlfriend
TTITLE2=How come you dont' call me
TTITLE3=Fallin'
TTITLE4=Troubles
TTITLE5=Rock wit u
TTITLE6=A woman's worth
TTITLE7=Jane doe
TTITLE8=Goobye
TTITLE9=The life
TTITLE10=Mr. Man
TTITLE11=Never felt this
TTITLE12=Butterflyz
TTITLE13=Why do I feel so sad
TTITLE14=Caged bird
EXTD=
EXTT0=
EXTT1=
EXTT2=
EXTT3=
EXTT4=
EXTT5=
EXTT6=
EXTT7=
EXTT8=
EXTT9=
EXTT10=
EXTT11=
EXTT12=
EXTT13=
EXTT14=
PLAYORDER=
